<svg width="162" height="24" viewBox="0 0 162 24" fill="none" xmlns="http://www.w3.org/2000/svg">
<path d="M35.7742 19.5588H38.2503V12.926H44.5901V10.7151H38.2503V6.6521H45.0911V4.44119H35.7742V19.5588Z" fill="black"/>
<path d="M50.9395 4.44119H48.4537V19.5588H57.4045V17.3769H50.9395V4.44119Z" fill="black"/>
<path d="M68.3594 4.44119H65.546L59.4471 19.5588H61.9907L63.725 15.0788H69.9684L71.7412 19.5588H74.3523L68.3594 4.44119ZM66.866 6.94301L69.1398 12.9745H64.5343L66.866 6.94301Z" fill="black"/>
<path d="M80.8654 6.68124C81.8867 6.22548 83.4379 6.18669 84.4881 6.51639C84.9505 6.66185 85.3552 6.86548 85.6924 7.1176C86.0296 7.36972 86.3187 7.67033 86.5596 8.00972C86.8004 8.34912 87.0028 8.7176 87.1666 9.09579L87.2051 9.18306H89.7487L89.6909 8.98912C89.4982 8.30063 89.2092 7.66063 88.8238 7.06912C88.448 6.4873 87.9663 5.97336 87.4074 5.537C86.8486 5.11033 86.1838 4.76124 85.4226 4.51882C83.7462 3.96609 81.376 4.03397 79.767 4.74185C78.842 5.13942 78.0327 5.69215 77.3775 6.39033C76.7224 7.08851 76.2117 7.93215 75.8552 8.88245C75.1326 10.7637 75.1519 13.4012 75.8649 15.2631C76.231 16.2231 76.7416 17.057 77.3872 17.7358C78.0424 18.4146 78.8228 18.9576 79.7092 19.3261C81.087 19.9176 82.985 20.0534 84.4495 19.6752C84.9891 19.5297 85.4708 19.3552 85.8851 19.1321C86.2994 18.9091 86.6559 18.6667 86.9546 18.3952C87.1184 18.24 87.2725 18.0946 87.4171 17.9491C87.4074 18.1915 87.4074 18.434 87.4074 18.657V19.5491H89.6813V11.4134H82.0697V13.6049H87.4267C87.3785 14.0606 87.2629 14.5261 87.0798 14.9818C86.8775 15.4958 86.5981 15.9612 86.2223 16.3782C85.8562 16.7855 85.3841 17.1249 84.8157 17.377C83.7173 17.8812 81.9156 17.8909 80.7979 17.3576C80.2102 17.0958 79.6995 16.7079 79.2756 16.2037C78.8517 15.6994 78.5241 15.0885 78.2929 14.3903C77.8304 13.0134 77.84 10.9382 78.3025 9.57094C78.5337 8.87275 78.8709 8.26185 79.3045 7.777C79.7477 7.30185 80.268 6.93336 80.8654 6.68124Z" fill="black"/>
<path d="M102.823 12.354C102.447 12.0243 101.975 11.743 101.436 11.5006C100.906 11.2679 100.308 11.0449 99.6533 10.8509L98.6224 10.5406C98.2273 10.4146 97.8419 10.2885 97.4951 10.1624C97.1482 10.0364 96.8495 9.88122 96.599 9.70668C96.3582 9.53213 96.1655 9.3188 96.0209 9.06668C95.8861 8.82425 95.809 8.52365 95.809 8.17456C95.809 7.59274 96.0209 7.13698 96.4642 6.77819C96.9074 6.41941 97.5529 6.23516 98.3815 6.23516C99.2294 6.23516 99.8942 6.4291 100.347 6.80728C100.8 7.18547 101.089 7.73819 101.205 8.44607L101.224 8.57213H103.738L103.719 8.40728C103.575 7.09819 103.064 6.05092 102.187 5.28486C101.31 4.5188 100.048 4.13092 98.4393 4.13092C97.6589 4.13092 96.9459 4.23759 96.3004 4.44122C95.6645 4.64486 95.1056 4.93577 94.6432 5.30425C94.1807 5.67274 93.8146 6.1285 93.5641 6.64244C93.3039 7.15637 93.1787 7.73819 93.1787 8.3685C93.1787 8.97941 93.2846 9.52244 93.487 9.97819C93.6893 10.434 93.9976 10.8315 94.383 11.1806C94.7588 11.52 95.2309 11.8206 95.7801 12.0727C96.3196 12.3249 96.9266 12.5576 97.5914 12.7612L98.5549 13.0715C98.9789 13.2073 99.3739 13.343 99.7304 13.4788C100.077 13.6049 100.386 13.76 100.646 13.9249C100.896 14.0897 101.089 14.303 101.224 14.5455C101.359 14.7879 101.436 15.1079 101.436 15.4764C101.436 16.1746 101.176 16.737 100.665 17.1636C100.145 17.5903 99.4124 17.8133 98.4778 17.8133C97.9768 17.8133 97.524 17.7455 97.1482 17.6097C96.7725 17.4836 96.4449 17.2897 96.1944 17.057C95.9342 16.8243 95.7223 16.543 95.5681 16.223C95.414 15.903 95.2983 15.5443 95.2309 15.1758L95.2116 15.0497H92.7258L92.7355 15.2146C92.8318 16.6788 93.4003 17.823 94.4119 18.6376C95.414 19.4424 96.7821 19.8497 98.4682 19.8497C99.2775 19.8497 100.029 19.743 100.703 19.52C101.388 19.297 101.975 18.9867 102.467 18.5794C102.958 18.1721 103.343 17.6776 103.613 17.1055C103.893 16.5333 104.028 15.8933 104.028 15.1952C104.028 14.5552 103.922 13.9927 103.7 13.537C103.507 13.0812 103.209 12.6836 102.823 12.354Z" fill="black"/>
<path d="M105.983 6.6521H109.982V19.5588H112.448V6.6521H116.437V4.44119H105.983V6.6521Z" fill="black"/>
<path d="M130.6 6.33216C129.936 5.64368 129.126 5.10065 128.201 4.72247C126.39 3.9661 123.846 3.9564 122.035 4.72247C121.11 5.10065 120.301 5.64368 119.646 6.33216C118.99 7.02065 118.47 7.85459 118.114 8.81459C117.391 10.6861 117.391 13.3334 118.114 15.2049C118.48 16.1649 118.99 16.9988 119.646 17.6776C120.301 18.3564 121.11 18.8994 122.035 19.2776C123.846 20.034 126.409 20.034 128.221 19.2776C129.146 18.8994 129.955 18.3564 130.62 17.6776C131.284 16.9988 131.805 16.1649 132.152 15.1952C132.865 13.314 132.865 10.6861 132.142 8.80489C131.776 7.85459 131.256 7.02065 130.6 6.33216ZM130.022 11.9855C130.022 12.8194 129.907 13.6049 129.675 14.3031C129.444 15.0013 129.126 15.6122 128.702 16.1164C128.288 16.6206 127.768 17.0182 127.161 17.2994C125.976 17.8619 124.203 17.8619 123.037 17.2897C122.44 17.0085 121.919 16.6013 121.505 16.097C121.091 15.5928 120.763 14.9819 120.532 14.2837C120.079 12.9164 120.079 11.0643 120.522 9.68731C120.744 8.98913 121.062 8.38792 121.486 7.88368C121.9 7.38913 122.42 6.99156 123.018 6.71034C124.193 6.14792 125.985 6.15762 127.17 6.70065C127.777 6.97216 128.298 7.36004 128.712 7.86428C129.126 8.36853 129.454 8.96974 129.685 9.66792C129.907 10.3758 130.022 11.1516 130.022 11.9855Z" fill="black"/>
<path d="M145.207 12.4024C145.207 12.7612 145.245 15.8448 145.245 15.9321C145.207 15.8642 143.8 13.4012 143.675 13.1782L138.626 4.44119H135.505V19.5588H137.942V11.5685C137.942 11.0642 137.923 8.04847 137.923 8.04847C137.932 8.06786 139.464 10.7636 139.686 11.1515L144.609 19.5588H147.644V4.44119H145.207V12.4024Z" fill="black"/>
<path d="M153.955 17.3769V12.926H160.507V10.7442H153.955V6.6521H160.998V4.44119H151.469V19.5588H161.143V17.3769H153.955Z" fill="black"/>
<path d="M23.8463 0H0V24H23.8463V0Z" fill="#45D6D6"/>
<path d="M12.8048 10.5018H5.09692V13.1297H12.8048L14.2308 11.8109L12.8048 10.5018Z" fill="black"/>
<path d="M6.96292 15.8621L4.88501 17.9534L6.96292 20.0447L9.04082 17.9534L6.96292 15.8621Z" fill="black"/>
<path d="M17.8727 4.80002H5.09692V7.4279H17.8727L19.2987 6.10911L17.8727 4.80002Z" fill="black"/>
</svg>
